<svg width="50" height="39" viewBox="0 0 50 39" fill="none" xmlns="http://www.w3.org/2000/svg">
<mask id="path-1-inside-1_158_57916" fill="white">
<path fill-rule="evenodd" clip-rule="evenodd" d="M50 0H0V10H4L14 39H37L46 10H50V0Z"/>
</mask>
<path fill-rule="evenodd" clip-rule="evenodd" d="M50 0H0V10H4L14 39H37L46 10H50V0Z" fill="white"/>
<path d="M0 0V-1H-1V0H0ZM50 0H51V-1H50V0ZM0 10H-1V11H0V10ZM4 10L4.94537 9.67401L4.71296 9H4V10ZM14 39L13.0546 39.326L13.287 40H14V39ZM37 39V40H37.7367L37.9551 39.2964L37 39ZM46 10V9H45.2633L45.0449 9.7036L46 10ZM50 10V11H51V10H50ZM0 1H50V-1H0V1ZM1 10V0H-1V10H1ZM4 9H0V11H4V9ZM14.9454 38.674L4.94537 9.67401L3.05463 10.326L13.0546 39.326L14.9454 38.674ZM37 38H14V40H37V38ZM45.0449 9.7036L36.0449 38.7036L37.9551 39.2964L46.9551 10.2964L45.0449 9.7036ZM50 9H46V11H50V9ZM49 0V10H51V0H49Z" fill="black" mask="url(#path-1-inside-1_158_57916)"/>
</svg>
