<svg width="14" height="13" viewBox="0 0 14 13" fill="none" xmlns="http://www.w3.org/2000/svg">
<path d="M13.45 4.52964C13.0986 3.69793 12.5892 2.9423 11.95 2.30464C11.3123 1.66543 10.5567 1.15602 9.725 0.804639C8.86094 0.439014 7.94531 0.254639 7 0.254639C6.05469 0.254639 5.13906 0.439014 4.275 0.804639C3.4433 1.15602 2.68767 1.66543 2.05 2.30464C1.41079 2.9423 0.901382 3.69793 0.55 4.52964C0.184375 5.3937 0 6.30933 0 7.25464C0 9.32808 0.910937 11.2812 2.49844 12.6156L2.525 12.6375C2.61563 12.7125 2.72969 12.7546 2.84687 12.7546H11.1547C11.2719 12.7546 11.3859 12.7125 11.4766 12.6375L11.5031 12.6156C13.0891 11.2812 14 9.32808 14 7.25464C14 6.30933 13.8141 5.3937 13.45 4.52964ZM10.8969 11.5671H3.10313C2.49937 11.0228 2.01682 10.3575 1.68681 9.61456C1.35679 8.87161 1.18667 8.06758 1.1875 7.25464C1.1875 5.70151 1.79219 4.24214 2.89062 3.14526C3.98906 2.04683 5.44844 1.44214 7 1.44214C8.55313 1.44214 10.0125 2.04683 11.1094 3.14526C12.2078 4.2437 12.8125 5.70308 12.8125 7.25464C12.8125 8.90464 12.1172 10.4656 10.8969 11.5671ZM8.74219 5.09058C8.71869 5.06731 8.68697 5.05426 8.65391 5.05426C8.62084 5.05426 8.58912 5.06731 8.56563 5.09058L7.24531 6.41089C6.95312 6.33276 6.62969 6.40776 6.4 6.63745C6.31865 6.71865 6.2541 6.8151 6.21007 6.92127C6.16603 7.02744 6.14336 7.14126 6.14336 7.2562C6.14336 7.37114 6.16603 7.48496 6.21007 7.59113C6.2541 7.6973 6.31865 7.79375 6.4 7.87495C6.4812 7.95631 6.57765 8.02085 6.68382 8.06488C6.78999 8.10892 6.90381 8.13159 7.01875 8.13159C7.13369 8.13159 7.24751 8.10892 7.35368 8.06488C7.45985 8.02085 7.5563 7.95631 7.6375 7.87495C7.74632 7.76646 7.82458 7.63116 7.86436 7.48274C7.90414 7.33431 7.90404 7.17801 7.86406 7.02964L9.18437 5.70933C9.23281 5.66089 9.23281 5.5812 9.18437 5.53276L8.74219 5.09058ZM6.65625 3.50464H7.34375C7.4125 3.50464 7.46875 3.44839 7.46875 3.37964V2.12964C7.46875 2.06089 7.4125 2.00464 7.34375 2.00464H6.65625C6.5875 2.00464 6.53125 2.06089 6.53125 2.12964V3.37964C6.53125 3.44839 6.5875 3.50464 6.65625 3.50464ZM10.7188 6.91089V7.59839C10.7188 7.66714 10.775 7.72339 10.8438 7.72339H12.0938C12.1625 7.72339 12.2188 7.66714 12.2188 7.59839V6.91089C12.2188 6.84214 12.1625 6.78589 12.0938 6.78589H10.8438C10.775 6.78589 10.7188 6.84214 10.7188 6.91089ZM10.9172 3.82964L10.4312 3.3437C10.4078 3.32044 10.376 3.30739 10.343 3.30739C10.3099 3.30739 10.2782 3.32044 10.2547 3.3437L9.37031 4.22808C9.34705 4.25157 9.334 4.2833 9.334 4.31636C9.334 4.34942 9.34705 4.38115 9.37031 4.40464L9.85625 4.89058C9.90469 4.93901 9.98438 4.93901 10.0328 4.89058L10.9172 4.0062C10.9656 3.95776 10.9656 3.87808 10.9172 3.82964ZM3.75156 3.3437C3.72807 3.32044 3.69634 3.30739 3.66328 3.30739C3.63022 3.30739 3.59849 3.32044 3.575 3.3437L3.08906 3.82964C3.0658 3.85313 3.05275 3.88486 3.05275 3.91792C3.05275 3.95098 3.0658 3.98271 3.08906 4.0062L3.97344 4.89058C4.02187 4.93901 4.10156 4.93901 4.15 4.89058L4.63594 4.40464C4.68438 4.3562 4.68438 4.27651 4.63594 4.22808L3.75156 3.3437ZM3.09375 6.78589H1.84375C1.775 6.78589 1.71875 6.84214 1.71875 6.91089V7.59839C1.71875 7.66714 1.775 7.72339 1.84375 7.72339H3.09375C3.1625 7.72339 3.21875 7.66714 3.21875 7.59839V6.91089C3.21875 6.84214 3.1625 6.78589 3.09375 6.78589Z" fill="#1890FF"/>
</svg>
