<svg width="975" height="900" viewBox="0 0 975 900" fill="none" xmlns="http://www.w3.org/2000/svg">
<g opacity="0.15">
<path d="M842.824 719.259C843.162 719.089 843.375 718.743 843.375 718.365V363.166C843.375 362.788 843.162 362.442 842.823 362.273L488.558 184.506C488.276 184.365 487.943 184.365 487.661 184.506L133.395 362.273C133.057 362.442 132.844 362.788 132.844 363.166V718.365C132.844 718.743 133.057 719.089 133.395 719.259L487.661 897.025C487.943 897.167 488.276 897.167 488.558 897.025L842.824 719.259Z" fill="#FFF0CA"/>
<rect x="475" y="11" width="460.24" height="345.18" rx="17.4333" fill="#EBF9FE"/>
<rect x="527.3" y="58.0698" width="160.387" height="71.4767" rx="6.97333" fill="#FFF0CA"/>
<rect x="527.3" y="148.723" width="160.387" height="71.4767" rx="6.97333" fill="#FFF0CA"/>
<rect x="527.3" y="239.377" width="160.387" height="71.4767" rx="6.97333" fill="#FFF0CA"/>
<rect x="720.81" y="58.0698" width="160.387" height="71.4767" rx="6.97333" fill="#FFF0CA"/>
<rect x="720.81" y="148.723" width="160.387" height="71.4767" rx="6.97333" fill="#FFF0CA"/>
<rect x="720.81" y="239.377" width="160.387" height="71.4767" rx="6.97333" fill="#FFF0CA"/>
<path d="M537.76 112.113L557.489 95.37C560.798 92.5617 565.742 92.9043 568.632 96.142V96.142C571.715 99.5957 577.077 99.7192 580.316 96.4111L587.719 88.8501C594.563 81.8588 606.045 82.676 611.831 90.5663V90.5663C615.911 96.1315 623.123 98.4174 629.665 96.219L636.617 93.8824C639.976 92.7537 643.68 93.4556 646.393 95.7348V95.7348C650.806 99.4426 657.416 98.7421 660.953 94.1916L675.483 75.5034" stroke="#FECE00" stroke-width="4"/>
<path d="M731.27 112.113L741.172 102.871C743.279 100.905 745.621 99.2057 748.145 97.8132L756.184 93.3778C764.466 88.8086 774.584 89.1383 782.551 94.237V94.237C788.233 97.8735 795.113 99.1394 801.718 97.7635L812.335 95.5516L828.629 93.1028C833.079 92.434 837.133 90.1635 840.027 86.7178V86.7178C844.842 80.9868 852.64 78.7277 859.773 80.9973L867.161 83.3482" stroke="#FECE00" stroke-width="4"/>
<path d="M674.612 193.178H656.588C650.797 193.178 645.212 191.027 640.918 187.142L640.63 186.881C633.769 180.673 623.803 179.248 615.462 183.252V183.252C610.349 185.706 604.483 186.16 599.057 184.509L593.544 182.831C589.735 181.672 585.598 182.496 582.524 185.027V185.027C577.183 189.426 569.229 188.352 565.245 182.695L562.682 179.054C559.682 174.793 554.797 172.258 549.586 172.258H537.76" stroke="#F4B510" stroke-width="4"/>
<path d="M731.27 202.767L762.673 194.533C766.098 193.635 769.367 192.223 772.369 190.344L783.362 183.462C790.419 179.044 798.82 177.286 807.057 178.505L820.832 180.543C830.228 181.933 839.786 179.445 847.311 173.649L847.985 173.13L867.25 160.927" stroke="#FECE00" stroke-width="4"/>
<path d="M537.76 270.757L551.462 265.682C557.868 263.309 564.84 262.926 571.467 264.583V264.583C576.25 265.779 580.715 268.003 584.551 271.101L598.809 282.617C600.514 283.995 602.471 285.027 604.571 285.657L606.81 286.329C613.678 288.389 621.007 285.023 623.919 278.471V278.471C626.946 271.661 634.709 268.335 641.726 270.842L650.925 274.127C652.763 274.783 654.517 275.655 656.15 276.723L676.355 289.933" stroke="#F4B510" stroke-width="4"/>
<path d="M866.378 281.217L856.436 285.942C847.45 290.213 836.69 287.116 831.35 278.722V278.722C828.145 273.686 822.831 270.373 816.899 269.714L806.818 268.594C804.138 268.296 801.557 267.405 799.264 265.985L795.841 263.867C789.471 259.923 781.124 261.707 776.923 267.91L774.362 271.689C770.303 277.682 761.576 277.969 757.132 272.255V272.255C755.114 269.66 752.01 268.142 748.723 268.142H731.27" stroke="#F4B510" stroke-width="4"/>
<rect x="846.336" y="204.973" width="48.8133" height="52.3" rx="3.48667" fill="#CCEFFB"/>
<path d="M844.593 197.743C843.488 197.743 842.593 198.639 842.593 199.743V209.744C842.593 219.116 841.287 228.441 838.712 237.452L835.697 248.007C835.524 248.61 835.645 249.26 836.023 249.761C836.401 250.262 836.992 250.556 837.62 250.556H879.46C880.353 250.556 881.137 249.965 881.383 249.106L884.398 238.551C887.075 229.183 888.433 219.487 888.433 209.744V199.743C888.433 198.639 887.538 197.743 886.433 197.743H844.593Z" fill="white" stroke="#CCEFFB" stroke-width="4" stroke-linecap="round" stroke-linejoin="round"/>
<circle cx="864.5" cy="236.5" r="3.5" fill="#9DDEF4"/>
<path d="M864.5 229C864.5 224.778 868.028 222.697 869.97 219.756C870.622 218.769 871 217.594 871 216.333C871 212.836 868.09 210 864.5 210C860.91 210 858 212.836 858 216.333C858 218.022 858.722 219.148 859.083 219.5" stroke="#9DDEF4" stroke-width="4" stroke-linejoin="round"/>
<rect x="507.46" y="108.973" width="48.8133" height="52.3" rx="3.48667" fill="#CCEFFB"/>
<path d="M505.716 101.743C504.612 101.743 503.716 102.639 503.716 103.743V113.744C503.716 123.116 502.41 132.441 499.836 141.452L496.82 152.007C496.648 152.61 496.769 153.26 497.146 153.761C497.524 154.262 498.116 154.556 498.743 154.556H540.583C541.476 154.556 542.261 153.965 542.506 153.106L545.522 142.551C548.199 133.183 549.556 123.487 549.556 113.744V103.743C549.556 102.639 548.661 101.743 547.556 101.743H505.716Z" fill="#FBCCE4" stroke="#CCEFFB" stroke-width="4" stroke-linecap="round" stroke-linejoin="round"/>
<path d="M511.124 124.5L517.459 121.172C518.168 120.799 519.045 121.065 519.428 121.769V121.769C520.02 122.858 521.612 122.766 522.075 121.617L523.412 118.296C524.475 115.658 528.212 115.665 529.266 118.306L530.075 120.336C530.956 122.545 534.029 122.689 535.113 120.572V120.572C535.92 118.995 537.979 118.571 539.343 119.7L542.124 122" stroke="#F778B9" stroke-width="3"/>
<path d="M508.124 136.5L511.614 133.358C512.41 132.642 513.656 132.799 514.25 133.69V133.69C515.039 134.873 516.832 134.677 517.348 133.352L517.754 132.306C518.483 130.433 521.065 130.297 521.947 132.103C523.694 135.678 525.394 139.458 525.124 140C524.801 140.646 527.496 136.993 529.686 133.982C530.491 132.877 532.024 132.6 533.161 133.358V133.358C534.456 134.222 536.217 133.729 536.875 132.318L539.124 127.5" stroke="#F778B9" stroke-width="3"/>
<rect x="685.943" y="87.707" width="48.8133" height="52.3" rx="3.48667" fill="#CCEFFB"/>
<path d="M684.2 80.4771C683.095 80.4771 682.2 81.3725 682.2 82.4771V92.4781C682.2 101.849 680.894 111.175 678.319 120.186L675.304 130.741C675.131 131.344 675.252 131.994 675.63 132.495C676.008 132.996 676.599 133.29 677.227 133.29H719.067C719.96 133.29 720.744 132.698 720.99 131.84L724.005 121.284C726.682 111.916 728.04 102.221 728.04 92.4781V82.4771C728.04 81.3725 727.144 80.4771 726.04 80.4771H684.2Z" fill="white" stroke="#CCEFFB" stroke-width="4" stroke-linecap="round" stroke-linejoin="round"/>
<path d="M702.636 96.4836C703.022 95.8213 703.978 95.8213 704.364 96.4836L707.643 102.112C707.784 102.355 708.021 102.527 708.295 102.586L714.661 103.965C715.41 104.127 715.706 105.037 715.195 105.609L710.855 110.466C710.668 110.675 710.578 110.954 710.606 111.233L711.262 117.714C711.339 118.476 710.565 119.038 709.864 118.729L703.903 116.103C703.646 115.989 703.354 115.989 703.097 116.103L697.136 118.729C696.435 119.038 695.661 118.476 695.738 117.714L696.394 111.233C696.422 110.954 696.332 110.675 696.145 110.466L691.805 105.609C691.294 105.037 691.59 104.127 692.339 103.965L698.705 102.586C698.979 102.527 699.216 102.355 699.357 102.112L702.636 96.4836Z" fill="#FECE00"/>
<g clip-path="url(#clip0_156_57430)">
<circle cx="182.62" cy="109.37" r="29.37" fill="#FEDF92"/>
<path d="M161.28 142.009L150.122 158.695M152.414 136L137.25 143.538" stroke="#FEDF92" stroke-width="4" stroke-linejoin="round"/>
<path d="M181.25 33.0498L271.25 119.05H91.25L181.25 33.0498Z" fill="#CCEFFB" stroke="#CCEFFB" stroke-width="4" stroke-linejoin="round"/>
<path d="M181.25 -94.9502L181.25 53.0498" stroke="#CCEFFB" stroke-width="4" stroke-linejoin="round"/>
<path d="M184 43L259 114" stroke="#EBF9FE" stroke-width="4"/>
</g>
<path d="M115 668.5C115 644.783 118.338 622.846 124 605C129.662 622.846 133 644.783 133 668.5C133 685.756 131.233 702.07 128.089 716.551C132.604 702.587 139.174 687.757 147.698 672.993C159.557 652.454 173.416 635.124 187.242 622.5C183.223 640.786 175.145 661.454 163.287 681.993C156.363 693.985 148.758 704.882 140.875 714.388C150.315 706.587 161.117 699.062 172.993 692.206C193.532 680.347 214.199 672.269 232.485 668.25C219.861 682.077 202.532 695.936 181.993 707.794C170.192 714.607 158.349 720.173 146.94 724.437C159.468 722.22 173.159 721 187.5 721C211.217 721 233.154 724.338 251 730C233.154 735.662 211.217 739 187.5 739C164.915 739 143.944 735.973 126.583 730.795C126.124 730.909 125.666 731.02 125.209 731.129L125.055 731.273C125.202 731.432 125.347 731.591 125.493 731.75C125.238 731.694 124.982 731.637 124.726 731.579C124.551 731.742 124.376 731.904 124.201 732.065C124.232 732.205 124.263 732.345 124.294 732.485C124.241 732.437 124.187 732.388 124.134 732.339C124.095 732.304 124.057 732.268 124.018 732.233C123.926 732.317 123.834 732.401 123.742 732.485C123.773 732.345 123.804 732.205 123.836 732.065C123.658 731.901 123.48 731.737 123.302 731.571C123.034 731.632 122.767 731.691 122.5 731.75C122.652 731.584 122.805 731.417 122.958 731.251L122.935 731.229C105.868 736.142 85.4456 739 63.5 739C39.7834 739 17.8458 735.662 0 730C17.8458 724.338 39.7834 721 63.5 721C75.8516 721 87.7207 721.905 98.7805 723.573C88.0751 719.43 77.0191 714.156 66 707.794C45.4609 695.936 28.1313 682.077 15.5074 668.25C33.7934 672.269 54.4609 680.347 75.0001 692.206C86.9342 699.096 97.7848 706.662 107.258 714.504C99.341 704.971 91.7016 694.033 84.7499 681.993C72.8916 661.454 64.8135 640.786 60.7941 622.5C74.6206 635.124 88.4801 652.454 100.338 672.993C108.793 687.637 115.327 702.347 119.837 716.213C116.74 701.816 115 685.621 115 668.5Z" fill="#C8F9B4"/>
<path d="M116 732C116 727.582 119.582 724 124 724C128.418 724 132 727.582 132 732V845H116V732Z" fill="#FEDF92"/>
<path d="M176 845H72V854H78.4286L87 884H161L169.571 854H176V845Z" fill="#FEEBF5"/>
</g>
<defs>
<clipPath id="clip0_156_57430">
<rect width="185" height="189" fill="white" transform="translate(89 -29)"/>
</clipPath>
</defs>
</svg>
