<svg width="65" height="96" viewBox="0 0 65 96" fill="none" xmlns="http://www.w3.org/2000/svg">
<path d="M0.5 15V79M64.5 79V15" stroke="black"/>
<path d="M32.5 3C24.8806 3 0 3 0 3V16.2047C0 19.7248 24.8806 20 32.5 20C40.1194 20 65 19.7248 65 16.2047V3C65 3 40.1194 3 32.5 3ZM32.5 4.81866C46.475 4.81866 57.7778 4.81866 57.7778 4.81866C57.7778 4.81866 46.475 6.71632 32.5 6.71632C18.525 6.71632 9.3577 4.81866 9.3577 4.81866C9.3577 4.81866 18.525 4.81866 32.5 4.81866Z" fill="black"/>
<path d="M32.5 3C24.8806 3 0 3 0 3V16.2047C0 19.7248 24.8806 20 32.5 20C40.1194 20 65 19.7248 65 16.2047V3C65 3 40.1194 3 32.5 3ZM32.5 4.81866C46.475 4.81866 57.7778 4.81866 57.7778 4.81866C57.7778 4.81866 46.475 6.71632 32.5 6.71632C18.525 6.71632 9.3577 4.81866 9.3577 4.81866C9.3577 4.81866 18.525 4.81866 32.5 4.81866Z" fill="black"/>
<path d="M34.6274 40.1161L34.5452 40.519L34.9248 40.6774C36.1929 41.2066 37.2978 42.0248 38.1375 43.0761L38.3985 43.4028L38.7662 43.2037C43.8608 40.4458 49.0953 39.6424 53.0123 40.7055C54.9646 41.2354 56.5795 42.2248 57.707 43.6561C58.8328 45.0854 59.5 46.9899 59.5 49.4C59.5 55.585 57.0644 58.5242 54.4621 59.2541C51.8272 59.9931 48.7307 58.5655 47.1677 55.4214L47.1664 55.4189C45.6631 52.4379 42.5051 51.1597 39.8586 50.6181L39.455 50.5356L39.2967 50.9159C38.7702 52.1815 37.9531 53.2664 36.8901 54.1713L36.5823 54.4332L36.7739 54.7891C39.5139 59.8774 40.3094 65.1062 39.2445 69.0192C38.7137 70.9695 37.7249 72.5827 36.2953 73.7089C34.8679 74.8336 32.9664 75.5 30.5602 75.5C24.3867 75.5 21.4585 73.0553 20.7324 70.4412C19.9966 67.7921 21.4252 64.6835 24.5494 63.1191C27.4974 61.6428 28.7747 58.5378 29.3433 55.9181L29.4324 55.508L29.0439 55.3492C27.7509 54.8206 26.6187 53.9757 25.7786 52.9239L25.5184 52.5982L25.1512 52.7956C20.0701 55.5261 14.8562 56.3227 10.9564 55.263C9.01278 54.7349 7.40582 53.7499 6.28403 52.3244C5.16381 50.9008 4.5 49.0033 4.5 46.6C4.5 40.4142 6.9294 37.4676 9.52532 36.7315C12.1523 35.9866 15.2413 37.4063 16.8044 40.5506L16.8057 40.5531C18.3094 43.535 21.4406 44.7847 24.0855 45.3258L24.4965 45.4099L24.6507 45.0198C25.148 43.7616 25.987 42.6572 27.0658 41.8139L27.398 41.5542L27.1981 41.1829C24.458 36.0945 23.6625 30.8725 24.7207 26.9662C25.2482 25.0193 26.2319 23.4097 27.6537 22.2862C29.0733 21.1645 30.964 20.5 33.356 20.5C39.5302 20.5 42.4735 22.9386 43.2124 25.5473C43.9604 28.1882 42.5466 31.2881 39.4236 32.8524C36.4449 34.3295 35.1681 37.4653 34.6274 40.1161ZM31.9581 44.7C31.0837 44.7 30.2453 45.0479 29.6273 45.6668C29.0093 46.2857 28.6623 47.125 28.6623 48C28.6623 48.875 29.0093 49.7143 29.6273 50.3332C30.2453 50.9521 31.0837 51.3 31.9581 51.3C32.8324 51.3 33.6708 50.9521 34.2888 50.3332C34.9068 49.7143 35.2539 48.875 35.2539 48C35.2539 47.125 34.9068 46.2857 34.2888 45.6668C33.6708 45.0479 32.8324 44.7 31.9581 44.7Z" fill="white" stroke="black"/>
<path d="M32.5 92C24.8806 92 0 92 0 92V78.7953C0 75.2752 24.8806 75 32.5 75C40.1194 75 65 75.2752 65 78.7953V92C65 92 40.1194 92 32.5 92ZM32.5 90.1813C46.475 90.1813 57.7778 90.1813 57.7778 90.1813C57.7778 90.1813 46.475 88.2837 32.5 88.2837C18.525 88.2837 9.3577 90.1813 9.3577 90.1813C9.3577 90.1813 18.525 90.1813 32.5 90.1813Z" fill="black"/>
</svg>
