<svg width="42" height="42" viewBox="0 0 42 42" fill="none" xmlns="http://www.w3.org/2000/svg">
<path d="M27.5013 18.8787C26.3298 20.0503 26.3297 21.9497 27.5013 23.1213L41.1213 36.7413C41.6839 37.3039 42 38.067 42 38.8626V39C42 40.6569 40.6569 42 39 42H38.8626C38.067 42 37.3039 41.6839 36.7413 41.1213L23.1213 27.5013C21.9497 26.3298 20.0503 26.3297 18.8787 27.5013L5.25868 41.1213C4.69607 41.6839 3.93301 42 3.13736 42H3C1.34315 42 0 40.6569 0 39V38.8626C0 38.067 0.31607 37.3039 0.878679 36.7413L14.4987 23.1213C15.6702 21.9497 15.6703 20.0503 14.4987 18.8787L0.878681 5.25868C0.316072 4.69607 0 3.93301 0 3.13736V3C0 1.34315 1.34315 0 3 0H3.13736C3.93301 0 4.69607 0.31607 5.25868 0.87868L18.8787 14.4987C20.0503 15.6702 21.9497 15.6703 23.1213 14.4987L36.7413 0.878679C37.3039 0.31607 38.067 0 38.8626 0H39C40.6569 0 42 1.34315 42 3V3.13736C42 3.93301 41.6839 4.69607 41.1213 5.25868L27.5013 18.8787Z" fill="black"/>
</svg>
