<svg width="38" height="106" viewBox="0 0 38 106" fill="none" xmlns="http://www.w3.org/2000/svg">
<path d="M21.5 3C21.5 1.61929 20.3807 0.5 19 0.5C17.6193 0.5 16.5 1.61929 16.5 3H21.5ZM17.2322 104.768C18.2085 105.744 19.7915 105.744 20.7678 104.768L36.6777 88.8579C37.654 87.8815 37.654 86.2986 36.6777 85.3223C35.7014 84.346 34.1184 84.346 33.1421 85.3223L19 99.4645L4.85786 85.3223C3.88155 84.346 2.29864 84.346 1.32233 85.3223C0.34602 86.2986 0.34602 87.8815 1.32233 88.8579L17.2322 104.768ZM16.5 3L16.5 103H21.5L21.5 3H16.5Z" fill="black"/>
</svg>