<svg width="64" height="96" viewBox="0 0 64 96" fill="none" xmlns="http://www.w3.org/2000/svg">
<path d="M0.5 28.1597C0.5 20.6372 6.33215 16.5128 13.3399 14.2567C20.3263 12.0074 28.2632 11.6996 32 11.6996C35.7368 11.6996 43.6737 12.0074 50.6601 14.2567C57.6679 16.5128 63.5 20.6372 63.5 28.1597V79.0397C63.5 86.5622 57.6679 90.6866 50.6601 92.9427C43.6737 95.192 35.7368 95.4998 32 95.4998C28.2632 95.4998 20.3263 95.192 13.3399 92.9427C6.33215 90.6866 0.5 86.5622 0.5 79.0397V28.1597Z" fill="white" stroke="black"/>
<path d="M32.5 2C27.6939 2 12 2 12 2V15.2047C12 18.7248 27.6939 19 32.5 19C37.3061 19 53 18.7248 53 15.2047V2C53 2 37.3061 2 32.5 2ZM32.5 7.61399C35.6433 7.61399 43.4333 7.49064 48.4444 6.42795V12.5954C43.4333 11.5327 35.6433 11.4093 32.5 11.4093C29.3567 11.4093 21.5667 11.5327 16.5556 12.5954V6.42795C21.5667 7.49064 29.3567 7.61399 32.5 7.61399ZM32.5 3.81866C41.315 3.81866 48.4444 3.81866 48.4444 3.81866C48.4444 3.81866 41.315 5.71632 32.5 5.71632C23.685 5.71632 17.9025 3.81866 17.9025 3.81866C17.9025 3.81866 23.685 3.81866 32.5 3.81866ZM32.5 17.1023C23.685 17.1023 16.5556 16.2579 16.5556 15.2047C16.5556 14.1609 23.685 13.307 32.5 13.307C41.315 13.307 48.4444 14.1609 48.4444 15.2047C48.4444 16.2579 41.315 17.1023 32.5 17.1023Z" fill="black"/>
<path d="M45.6061 36.6C47.3394 36.6 48.7576 37.77 48.7576 39.2C48.7576 40.63 47.3394 41.8 45.6061 41.8C43.8727 41.8 42.4545 40.63 42.4545 39.2C42.4545 37.77 43.8727 36.6 45.6061 36.6ZM45.6061 28.8C47.3394 28.8 48.7576 29.97 48.7576 31.4C48.7576 32.83 47.3394 34 45.6061 34C43.8727 34 42.4545 32.83 42.4545 31.4C42.4545 29.97 43.8727 28.8 45.6061 28.8ZM45.6061 21C47.3394 21 48.7576 22.17 48.7576 23.6C48.7576 25.03 47.3394 26.2 45.6061 26.2C43.8727 26.2 42.4545 25.03 42.4545 23.6C42.4545 22.17 43.8727 21 45.6061 21ZM36.1515 36.6C37.8848 36.6 39.303 37.77 39.303 39.2C39.303 40.63 37.8848 41.8 36.1515 41.8C34.4182 41.8 33 40.63 33 39.2C33 37.77 34.4182 36.6 36.1515 36.6ZM36.1515 28.8C37.8848 28.8 39.303 29.97 39.303 31.4C39.303 32.83 37.8848 34 36.1515 34C34.4182 34 33 32.83 33 31.4C33 29.97 34.4182 28.8 36.1515 28.8ZM36.1515 21C37.8848 21 39.303 22.17 39.303 23.6C39.303 25.03 37.8848 26.2 36.1515 26.2C34.4182 26.2 33 25.03 33 23.6C33 22.17 34.4182 21 36.1515 21ZM55.0606 36.6C56.7939 36.6 58.2121 37.77 58.2121 39.2C58.2121 40.63 56.7939 41.8 55.0606 41.8C53.3273 41.8 51.9091 40.63 51.9091 39.2C51.9091 37.77 53.3273 36.6 55.0606 36.6ZM55.0606 28.8C56.7939 28.8 58.2121 29.97 58.2121 31.4C58.2121 32.83 56.7939 34 55.0606 34C53.3273 34 51.9091 32.83 51.9091 31.4C51.9091 29.97 53.3273 28.8 55.0606 28.8ZM55.0606 21C56.7939 21 58.2121 22.17 58.2121 23.6C58.2121 25.03 56.7939 26.2 55.0606 26.2C53.3273 26.2 51.9091 25.03 51.9091 23.6C51.9091 22.17 53.3273 21 55.0606 21Z" fill="black"/>
<path d="M45.6061 59.6C47.3394 59.6 48.7576 60.77 48.7576 62.2C48.7576 63.63 47.3394 64.8 45.6061 64.8C43.8727 64.8 42.4545 63.63 42.4545 62.2C42.4545 60.77 43.8727 59.6 45.6061 59.6ZM45.6061 51.8C47.3394 51.8 48.7576 52.97 48.7576 54.4C48.7576 55.83 47.3394 57 45.6061 57C43.8727 57 42.4545 55.83 42.4545 54.4C42.4545 52.97 43.8727 51.8 45.6061 51.8ZM45.6061 44C47.3394 44 48.7576 45.17 48.7576 46.6C48.7576 48.03 47.3394 49.2 45.6061 49.2C43.8727 49.2 42.4545 48.03 42.4545 46.6C42.4545 45.17 43.8727 44 45.6061 44ZM36.1515 59.6C37.8848 59.6 39.303 60.77 39.303 62.2C39.303 63.63 37.8848 64.8 36.1515 64.8C34.4182 64.8 33 63.63 33 62.2C33 60.77 34.4182 59.6 36.1515 59.6ZM36.1515 51.8C37.8848 51.8 39.303 52.97 39.303 54.4C39.303 55.83 37.8848 57 36.1515 57C34.4182 57 33 55.83 33 54.4C33 52.97 34.4182 51.8 36.1515 51.8ZM36.1515 44C37.8848 44 39.303 45.17 39.303 46.6C39.303 48.03 37.8848 49.2 36.1515 49.2C34.4182 49.2 33 48.03 33 46.6C33 45.17 34.4182 44 36.1515 44ZM55.0606 59.6C56.7939 59.6 58.2121 60.77 58.2121 62.2C58.2121 63.63 56.7939 64.8 55.0606 64.8C53.3273 64.8 51.9091 63.63 51.9091 62.2C51.9091 60.77 53.3273 59.6 55.0606 59.6ZM55.0606 51.8C56.7939 51.8 58.2121 52.97 58.2121 54.4C58.2121 55.83 56.7939 57 55.0606 57C53.3273 57 51.9091 55.83 51.9091 54.4C51.9091 52.97 53.3273 51.8 55.0606 51.8ZM55.0606 44C56.7939 44 58.2121 45.17 58.2121 46.6C58.2121 48.03 56.7939 49.2 55.0606 49.2C53.3273 49.2 51.9091 48.03 51.9091 46.6C51.9091 45.17 53.3273 44 55.0606 44Z" fill="black"/>
<path d="M18.6061 59.6C20.3394 59.6 21.7576 60.77 21.7576 62.2C21.7576 63.63 20.3394 64.8 18.6061 64.8C16.8727 64.8 15.4545 63.63 15.4545 62.2C15.4545 60.77 16.8727 59.6 18.6061 59.6ZM18.6061 51.8C20.3394 51.8 21.7576 52.97 21.7576 54.4C21.7576 55.83 20.3394 57 18.6061 57C16.8727 57 15.4545 55.83 15.4545 54.4C15.4545 52.97 16.8727 51.8 18.6061 51.8ZM18.6061 44C20.3394 44 21.7576 45.17 21.7576 46.6C21.7576 48.03 20.3394 49.2 18.6061 49.2C16.8727 49.2 15.4545 48.03 15.4545 46.6C15.4545 45.17 16.8727 44 18.6061 44ZM9.15151 59.6C10.8848 59.6 12.303 60.77 12.303 62.2C12.303 63.63 10.8848 64.8 9.15151 64.8C7.41818 64.8 6 63.63 6 62.2C6 60.77 7.41818 59.6 9.15151 59.6ZM9.15151 51.8C10.8848 51.8 12.303 52.97 12.303 54.4C12.303 55.83 10.8848 57 9.15151 57C7.41818 57 6 55.83 6 54.4C6 52.97 7.41818 51.8 9.15151 51.8ZM9.15151 44C10.8848 44 12.303 45.17 12.303 46.6C12.303 48.03 10.8848 49.2 9.15151 49.2C7.41818 49.2 6 48.03 6 46.6C6 45.17 7.41818 44 9.15151 44ZM28.0606 59.6C29.7939 59.6 31.2121 60.77 31.2121 62.2C31.2121 63.63 29.7939 64.8 28.0606 64.8C26.3273 64.8 24.9091 63.63 24.9091 62.2C24.9091 60.77 26.3273 59.6 28.0606 59.6ZM28.0606 51.8C29.7939 51.8 31.2121 52.97 31.2121 54.4C31.2121 55.83 29.7939 57 28.0606 57C26.3273 57 24.9091 55.83 24.9091 54.4C24.9091 52.97 26.3273 51.8 28.0606 51.8ZM28.0606 44C29.7939 44 31.2121 45.17 31.2121 46.6C31.2121 48.03 29.7939 49.2 28.0606 49.2C26.3273 49.2 24.9091 48.03 24.9091 46.6C24.9091 45.17 26.3273 44 28.0606 44Z" fill="black"/>
<path d="M18.6061 82.6C20.3394 82.6 21.7576 83.77 21.7576 85.2C21.7576 86.63 20.3394 87.8 18.6061 87.8C16.8727 87.8 15.4545 86.63 15.4545 85.2C15.4545 83.77 16.8727 82.6 18.6061 82.6ZM18.6061 74.8C20.3394 74.8 21.7576 75.97 21.7576 77.4C21.7576 78.83 20.3394 80 18.6061 80C16.8727 80 15.4545 78.83 15.4545 77.4C15.4545 75.97 16.8727 74.8 18.6061 74.8ZM18.6061 67C20.3394 67 21.7576 68.17 21.7576 69.6C21.7576 71.03 20.3394 72.2 18.6061 72.2C16.8727 72.2 15.4545 71.03 15.4545 69.6C15.4545 68.17 16.8727 67 18.6061 67ZM9.15151 82.6C10.8848 82.6 12.303 83.77 12.303 85.2C12.303 86.63 10.8848 87.8 9.15151 87.8C7.41818 87.8 6 86.63 6 85.2C6 83.77 7.41818 82.6 9.15151 82.6ZM9.15151 74.8C10.8848 74.8 12.303 75.97 12.303 77.4C12.303 78.83 10.8848 80 9.15151 80C7.41818 80 6 78.83 6 77.4C6 75.97 7.41818 74.8 9.15151 74.8ZM9.15151 67C10.8848 67 12.303 68.17 12.303 69.6C12.303 71.03 10.8848 72.2 9.15151 72.2C7.41818 72.2 6 71.03 6 69.6C6 68.17 7.41818 67 9.15151 67ZM28.0606 82.6C29.7939 82.6 31.2121 83.77 31.2121 85.2C31.2121 86.63 29.7939 87.8 28.0606 87.8C26.3273 87.8 24.9091 86.63 24.9091 85.2C24.9091 83.77 26.3273 82.6 28.0606 82.6ZM28.0606 74.8C29.7939 74.8 31.2121 75.97 31.2121 77.4C31.2121 78.83 29.7939 80 28.0606 80C26.3273 80 24.9091 78.83 24.9091 77.4C24.9091 75.97 26.3273 74.8 28.0606 74.8ZM28.0606 67C29.7939 67 31.2121 68.17 31.2121 69.6C31.2121 71.03 29.7939 72.2 28.0606 72.2C26.3273 72.2 24.9091 71.03 24.9091 69.6C24.9091 68.17 26.3273 67 28.0606 67Z" fill="black"/>
<path d="M45.6061 82.6C47.3394 82.6 48.7576 83.77 48.7576 85.2C48.7576 86.63 47.3394 87.8 45.6061 87.8C43.8727 87.8 42.4545 86.63 42.4545 85.2C42.4545 83.77 43.8727 82.6 45.6061 82.6ZM45.6061 74.8C47.3394 74.8 48.7576 75.97 48.7576 77.4C48.7576 78.83 47.3394 80 45.6061 80C43.8727 80 42.4545 78.83 42.4545 77.4C42.4545 75.97 43.8727 74.8 45.6061 74.8ZM45.6061 67C47.3394 67 48.7576 68.17 48.7576 69.6C48.7576 71.03 47.3394 72.2 45.6061 72.2C43.8727 72.2 42.4545 71.03 42.4545 69.6C42.4545 68.17 43.8727 67 45.6061 67ZM36.1515 82.6C37.8848 82.6 39.303 83.77 39.303 85.2C39.303 86.63 37.8848 87.8 36.1515 87.8C34.4182 87.8 33 86.63 33 85.2C33 83.77 34.4182 82.6 36.1515 82.6ZM36.1515 74.8C37.8848 74.8 39.303 75.97 39.303 77.4C39.303 78.83 37.8848 80 36.1515 80C34.4182 80 33 78.83 33 77.4C33 75.97 34.4182 74.8 36.1515 74.8ZM36.1515 67C37.8848 67 39.303 68.17 39.303 69.6C39.303 71.03 37.8848 72.2 36.1515 72.2C34.4182 72.2 33 71.03 33 69.6C33 68.17 34.4182 67 36.1515 67ZM55.0606 82.6C56.7939 82.6 58.2121 83.77 58.2121 85.2C58.2121 86.63 56.7939 87.8 55.0606 87.8C53.3273 87.8 51.9091 86.63 51.9091 85.2C51.9091 83.77 53.3273 82.6 55.0606 82.6ZM55.0606 74.8C56.7939 74.8 58.2121 75.97 58.2121 77.4C58.2121 78.83 56.7939 80 55.0606 80C53.3273 80 51.9091 78.83 51.9091 77.4C51.9091 75.97 53.3273 74.8 55.0606 74.8ZM55.0606 67C56.7939 67 58.2121 68.17 58.2121 69.6C58.2121 71.03 56.7939 72.2 55.0606 72.2C53.3273 72.2 51.9091 71.03 51.9091 69.6C51.9091 68.17 53.3273 67 55.0606 67Z" fill="black"/>
<path d="M18.6061 36.6C20.3394 36.6 21.7576 37.77 21.7576 39.2C21.7576 40.63 20.3394 41.8 18.6061 41.8C16.8727 41.8 15.4545 40.63 15.4545 39.2C15.4545 37.77 16.8727 36.6 18.6061 36.6ZM18.6061 28.8C20.3394 28.8 21.7576 29.97 21.7576 31.4C21.7576 32.83 20.3394 34 18.6061 34C16.8727 34 15.4545 32.83 15.4545 31.4C15.4545 29.97 16.8727 28.8 18.6061 28.8ZM18.6061 21C20.3394 21 21.7576 22.17 21.7576 23.6C21.7576 25.03 20.3394 26.2 18.6061 26.2C16.8727 26.2 15.4545 25.03 15.4545 23.6C15.4545 22.17 16.8727 21 18.6061 21ZM9.15151 36.6C10.8848 36.6 12.303 37.77 12.303 39.2C12.303 40.63 10.8848 41.8 9.15151 41.8C7.41818 41.8 6 40.63 6 39.2C6 37.77 7.41818 36.6 9.15151 36.6ZM9.15151 28.8C10.8848 28.8 12.303 29.97 12.303 31.4C12.303 32.83 10.8848 34 9.15151 34C7.41818 34 6 32.83 6 31.4C6 29.97 7.41818 28.8 9.15151 28.8ZM9.15151 21C10.8848 21 12.303 22.17 12.303 23.6C12.303 25.03 10.8848 26.2 9.15151 26.2C7.41818 26.2 6 25.03 6 23.6C6 22.17 7.41818 21 9.15151 21ZM28.0606 36.6C29.7939 36.6 31.2121 37.77 31.2121 39.2C31.2121 40.63 29.7939 41.8 28.0606 41.8C26.3273 41.8 24.9091 40.63 24.9091 39.2C24.9091 37.77 26.3273 36.6 28.0606 36.6ZM28.0606 28.8C29.7939 28.8 31.2121 29.97 31.2121 31.4C31.2121 32.83 29.7939 34 28.0606 34C26.3273 34 24.9091 32.83 24.9091 31.4C24.9091 29.97 26.3273 28.8 28.0606 28.8ZM28.0606 21C29.7939 21 31.2121 22.17 31.2121 23.6C31.2121 25.03 29.7939 26.2 28.0606 26.2C26.3273 26.2 24.9091 25.03 24.9091 23.6C24.9091 22.17 26.3273 21 28.0606 21Z" fill="black"/>
</svg>
