<svg xmlns="http://www.w3.org/2000/svg" width="50" height="54" viewBox="0 0 50 54" fill="none">
    <mask id="mask0_3_9" style="mask-type:alpha" maskUnits="userSpaceOnUse" x="0" y="15" width="50" height="39">
      <path fill-rule="evenodd" clip-rule="evenodd" d="M50 15H0V25H4L14 54H37L46 25H50V15Z" fill="white"/>
    </mask>
    <g mask="url(#mask0_3_9)">
      <path fill-rule="evenodd" clip-rule="evenodd" d="M50 15H0V25H4L14 54H37L46 25H50V15Z" fill="white"/>
      <path d="M0 15V14H-1V15H0ZM50 15H51V14H50V15ZM0 25H-1V26H0V25ZM4 25L4.94537 24.674L4.71296 24H4V25ZM14 54L13.0546 54.326L13.287 55H14V54ZM37 54V55H37.7367L37.9551 54.2964L37 54ZM46 25V24H45.2633L45.0449 24.7036L46 25ZM50 25V26H51V25H50ZM0 16H50V14H0V16ZM1 25V15H-1V25H1ZM4 24H0V26H4V24ZM14.9454 53.674L4.94537 24.674L3.05463 25.326L13.0546 54.326L14.9454 53.674ZM37 53H14V55H37V53ZM45.0449 24.7036L36.0449 53.7036L37.9551 54.2964L46.9551 25.2964L45.0449 24.7036ZM50 24H46V26H50V24ZM49 15V25H51V15H49Z" fill="black"/>
    </g>
  </svg> 