<svg width="96" height="96" viewBox="0 0 96 96" fill="none" xmlns="http://www.w3.org/2000/svg">
<circle cx="48" cy="48" r="47" stroke="black" stroke-width="2"/>
<path d="M55 43.26C52.42 44.64 50.06 46.4 48 48.52C45.94 46.38 43.58 44.62 41 43.26C41.48 37.72 43.84 32.28 48.12 28C52.36 32.24 54.62 37.68 55 43.26ZM48 54.9C52.3 48.34 59.64 44 68 44C68 64 49.36 67.76 48 68C46.64 67.78 28 64 28 44C36.36 44 43.7 48.34 48 54.9ZM48.1 34.38C46.78 36.46 45.86 38.76 45.36 41.16L48 43.1L50.7 41.14C50.24 38.74 49.36 36.44 48.1 34.38ZM48 63.94C48 63.94 60 62 63.48 48.5C52 52 48 62.2 48 62.2C48 62.2 42 50 32.52 48.52C36 62 48 63.94 48 63.94Z" fill="black"/>
</svg>
